Genres:	Drama , Mystery , Romance , Thriller 

Actors:	Antonio Banderas , Angelina Jolie , Thomas Jane , Jack Thompson , Gregory
        Itzin , Allison Mackie , Joan Pringle , Cordelia Richards , James Haven , 
        Pedro Armendáriz Jr. , Mario Iván Martínez , Harry Porter , Fernando Torre 
        Laphame , Shaula Vega , Lisa Owen

Director:Michael Cristofer

Runtime:116 min

Year:	2001

Plot:	When a man selects a mail order bride| he is surprised to see the beauty who appears before him. She alleges that she sent false photos to him to assure that he would love her for what she is and not for her beauty. However| what she is a con artist| prostitute| and actress| who teams with a fellow actor to steal money from men. What she does not expect is that she falls in love with her new husband and ultimately must decide between him and her sadistic former lover. Contains explicit sex including sadistic acts as Thomas Jane cuts Jolie's back with a knife as part of their lovemaking.




Release Group: thugline
Container: MKV
Resolution: 1080p
Source Media: Blu Ray
Audio Format: DTS
Audio Channels: 6.1
Audio Bitrate: 1510

General
Format : Matroska
File size : 7.94 GiB
Duration : 1h 58mn
Overall bit rate : 9 601 Kbps

Video
ID : 1
Format : AVC
Format/Info : Advanced Video Codec
Format profile : High@L4.1
Format settings, CABAC : Yes
Format settings, ReFrames : 5 frames
Codec ID : V_MPEG4/ISO/AVC
Duration : 1h 58mn
Bit rate : 8 096 Kbps
Width : 1 920 pixels
Height : 816 pixels
Display aspect ratio : 2.35:1
Frame rate : 23.976 fps
Color space : YUV
Chroma subsampling : 4:2:0
Bit depth : 8 bits
Scan type : Progressive
Bits/(Pixel*Frame) : 0.216
Stream size : 6.53 GiB (82%)
Writing library : x264 core 88 r1471 1144615

Audio
ID : 2
Format : DTS
Format/Info : Digital Theater Systems
Codec ID : A_DTS
Duration : 1h 58mn
Bit rate mode : Constant
Bit rate : 1 510 Kbps
Channel(s) : 6 channels
Channel positions : Front: L C R, Side: L R, LFE
Sampling rate : 48.0 KHz
Bit depth : 16 bits
Compression mode : Lossy
Stream size : 1.25 GiB (16%)
Language : English
